<svg version="1.1" xmlns="http://www.w3.org/2000/svg" viewBox="0 0 128 128">
  <rect x="0" y="0" width="128" height="128" fill="#2e343a"/>
  <g transform="translate(11.5 51)" id="fortyau-primary-logo-mark">
    <path d="M56.049 25.5C51.6625 25.5 47.8431 22.6618 47.8431 17.5811V8.41964C47.8431 3.34118 51.6625 0.5 56.049 0.5C60.4355 0.5 64.2182 3.34118 64.2182 8.41964V17.5819C64.2182 22.6618 60.437 25.5 56.049 25.5ZM59.6756 8.89355C59.6756 6.39929 58.2017 4.86268 56.0521 4.86873C53.9025 4.87477 52.3865 6.42046 52.3865 8.91774V17.1684C52.3865 19.6665 53.9025 21.16 56.0521 21.1532C58.2017 21.1464 59.6756 19.6415 59.6756 17.1473V8.89355Z" fill="white"/>
    <path d="M84.1924 25.2838H86.3917L76.4786 0.716919H74.6335L64.7227 25.2816H66.9197L69.8897 17.7482H81.2224L84.1924 25.2838ZM70.6006 15.9478L75.5557 3.38124L80.5107 15.9478H70.6006Z" fill="white"/>
    <path d="M102.647 0.651123V16.3853C102.647 20.7926 99.7723 23.7079 95.4601 23.7079C91.1478 23.7079 88.2735 20.7926 88.2735 16.3853V0.651123H86.2318V16.6476C86.2318 21.8402 90.0512 25.5 95.4601 25.5C100.869 25.5 104.688 21.8402 104.688 16.6476V0.651123H102.647Z" fill="white"/>
    <path d="M40.2832 12.6167V15.9341H34.9432L44.6406 0.651123H38.6892L26.1305 20.4404H40.2832V25.3382H44.8457V12.6167H40.2832Z" fill="white"/>
    <path d="M15.4797 11.6932H0V25.2839H15.4797V11.6932Z" fill="#FAD542"/>
    <path d="M15.4796 10.8754V1.23242L1.21057 10.8754H15.4796Z" fill="#FAD542"/>
    <path d="M16.3398 0.651123V25.2838L24.9398 11.6931V0.651123H16.3398Z" fill="#FAD542"/>
  </g>
</svg>
