<svg width="240.01" height="47.735" version="1.1" viewBox="0 0 240.01 47.735" xmlns="http://www.w3.org/2000/svg">
<title>A 2-dimensional cartoonish wave curling to the right.</title>
  <g fill="#655649" transform="translate(-879.34 -682.84)">
    <path d="m991.13 683.33c-1.9902-0.0354-3.1647 0.67865-5.9632 2.9228-4.5048 3.6125-7.053 8.3225-10.299 19.033-2.3468 7.7432-5.0322 11.094-10.183 12.708-4.8484 1.5189-7.5054 0.58818-12.024-4.2151l-3.7981-4.0385 1.0716-5.2509c1.4144-6.9309 6.3647-14.126 10.767-15.65 3.776-1.3068 6.0187-0.11467 5.9885 3.1824-0.0205 2.2341-0.78761 2.3146-3.1569 0.32964-3.4031-2.8512-5.7552 1.9882-2.7515 5.661 1.6642 2.0349 4.4975 2.38 8.0074 0.9756 4.3755-1.7508 4.0846-12.051-0.38525-13.643-5.289-1.8838-12.31 0.11288-16.11 4.5826-2.0958 2.4647-5.3961 8.8991-9.1198 17.779-4.8222 12.978-16.42 17.416-20.087 3.4999-0.87273-3.6597-0.74551-4.7553 0.98458-8.5224 2.2134-4.8196 6.9973-7.8886 9.1766-5.887 2.2678 2.0829 3.021 4.6805 1.9637 6.7732-1.3427 2.6577-2.2764 2.4979-3.5466-0.60709-0.75759-1.8521-1.6409-2.4982-3.1258-2.2856-1.6748 0.23979-2.1328 1.0384-2.3992 4.1791-0.40878 4.8207 0.26201 5.5818 5.1405 5.8418 4.7646 0.25388 8.1834-2.7066 9.1321-7.9068 0.57647-3.1597 0.29764-3.8579-2.7944-6.9932-3.0986-3.1422-3.8386-3.4374-7.556-3.0235-6.8309 0.7608-10.461 4.6474-15.687 16.803-4.5957 10.689-13.067 16.274-22.844 15.059-3.9921-0.49629-5.3073-0.31988-5.702 0.76353-0.32238 0.88521-1.3535 1.2236-2.7783 0.91233-2.4156-0.52795-3.9451 0.94609-2.9092 2.8052 0.44792 0.80393 5.6601 0.98496 18.272 0.63652 21.442-0.59247 96.42-0.52114 161.92 0.15411 48.889 0.50436 54.44 0.18628 50.622-2.9052-1.3743-1.113-1.2979-1.342 0.7783-2.3414 1.2656-0.60903 2.3066-1.7513 2.3139-2.5399 0.01-0.78852 1.2273-2.5197 2.7115-3.8472 1.7876-1.599 2.4503-2.8615 1.9608-3.74-0.5978-1.0727-1.595-0.97482-5.2185 0.51261-6.3229 2.5958-18.135 2.4426-22.244-0.28654-5.5264-3.6706-8.2429-13.861-5.0668-19.007 2.9157-4.7238 10.619-5.7324 10.579-1.3854-0.014 1.4863-0.6651 1.9262-2.8143 1.903-3.2055-0.0345-4.2903 1.8479-2.8222 4.8959 1.4114 2.9299 4.3014 2.6363 7.4988-0.76381 3.2655-3.4724 3.661-8.0805 0.952-11.078-3.5467-3.9243-11.164-1.9137-16.682 4.4025-10.56 12.089-16.284 17.31-21.023 19.176-5.4779 2.1562-8.2737 1.6162-12.086-2.3352-2.3931-2.4805-2.5237-3.8832-0.7074-7.5729 1.3917-2.8271 7.0693-7.0026 7.0527-5.1865-0.01 0.58156-0.3759 1.0535-0.8243 1.0487-1.4725-0.0158-1.8163 5.041-0.4456 6.5576 1.7772 1.9664 6.6441 1.9016 8.7418-0.11696 1.9731-1.8986 2.4215-9.2226 0.6823-11.147-1.5009-1.6606-7.2-1.5868-11.128 0.14402-4.3984 1.938-7.2926 5.8548-10.577 14.319-2.3354 6.0188-3.3004 7.4005-6.2618 8.9562-2.7452 1.4419-4.2665 1.6448-7.0426 0.93676-6.0036-1.5312-7.9172-2.6703-10.997-6.5518-2.6607-3.3536-2.9031-4.1778-2.3267-7.8797 1.4072-9.0378 6.4519-15.461 11.105-14.141 1.6507 0.46827 2.3738 1.3448 2.36 2.8579-0.016 1.6976-0.2629 1.9148-1.1154 0.97136-0.6029-0.66708-2.2587-1.2266-3.6796-1.2419-2.2143-0.0238-2.5878 0.37329-2.6098 2.7752-0.036 3.8858 1.5138 5.2201 6.1135 5.2696 3.196 0.0344 4.2384-0.43218 5.4868-2.4548 1.6304-2.6414 1.3498-7.5873-0.5775-10.158-1.2539-1.6724-9.9223-1.9111-13.14-0.36237-2.475 1.1911-6.023 8.7298-8.1421 17.303-2.6644 10.779-6.4479 14.676-14.286 14.715-6.6351 0.0325-12.392-4.3492-15.168-11.544-1.9237-4.9862-1.9366-5.3023-0.41012-10.127 2.372-7.4969 4.8904-10.108 9.8142-10.175 4.0473-0.0546 4.0804-0.0261 4.0494 3.3649-0.0175 1.8807-0.55195 3.6001-1.1884 3.8226-0.63638 0.22255-1.1511-0.2547-1.1437-1.062 0.0175-1.9055-3.6642-2.9864-5.2896-1.5525-2.0525 1.8106-1.0942 7.0215 1.5983 8.6909 2.7357 1.6962 6.0772 1.0948 9.2931-1.6729 1.7422-1.4995 2.2177-2.8683 2.2507-6.4659 0.053-5.7798-2.1425-8.3977-7.8014-9.3012-0.93533-0.14929-1.6897-0.24609-2.3531-0.25794z" />
  </g>
</svg>
