<svg version="1.1" viewBox="0 0 408 227" xmlns="http://www.w3.org/2000/svg"><path d="m266.1 36.609c-2.2366-0.14726-4.1993 1.1562-5.1332 3.085-6.7078 1.4334-15.173-0.81347-20.421 4.8515-2.8486 3.0958-1.9824 9.7947 2.7569 10.28 5.0825 0.17118 9.0835-4.3796 14.032-4.2314 6.0428 2.3836 12.684 5.7441 14.921 12.329 5.3238 10.141 3.229 22.155-1.4429 32.097-7.9146 18.404-24.708 32.086-43.324 38.768-8.5181 3.0561-17.623 2.3151-26.458 3.1859-1.999 0.74709 1.2713 1.892 1.9966 1.9624 10.576 3.4501 22.103 3.5828 32.646-0.0732 2.5157-0.59196 5.7691-2.0856 7.9543-2.1689-4.7635 4.4327-11.873 5.1803-18.018 6.5048-13.286 2.5942-27.304 0.0382-38.87-7.0161-19.863-11.436-31.388-33.21-52.04-43.62-11.87-6.566-26.299-12.571-39.9-7.8458-7.5472 2.019-12.635 10.705-9.7058 18.134 1.1586 3.4538 6.0061 6.1859 9.225 4.0641 2.4534-3.3524 7.0159-4.2402 9.3716-7.7706 3.0209-2.0689 6.7921 0.51025 9.8023 1.3821 9.0164 4.0356 11.244 15.192 10.854 24.104-0.25859 10.288-6.7995 19.171-14.719 25.237-6.6852 5.1859-14.597 9.4893-22.951 10.873 1.0186-1.8892 4.3778-2.3982 6.2869-3.5536 13.447-5.0417 25.595-15.974 28.424-30.514 2.0184-8.6152-1.238-19.626-10.167-22.845-4.6305-0.10261-9.4219 2.6462-12.022 6.362 0.71595 1.646 3.5176 1.296 4.4564 3.0314 5.6842 4.2883 6.8722 11.973 5.1797 18.518-1.6884 9.1502-8.6479 16.534-16.518 20.902-2.9276 1.565-1.277-0.29035 0.23-1.612 6.4423-5.8657 13.714-12.665 13.937-22.061 0.19696-5.1274-0.91909-11.691-6.5196-13.552-4.4098-2.7332-9.7965-2.6675-14.4-4.7279-3.6447-2.4956-3.8645-7.1999-5.8661-10.678-2.9387-1.2471-5.0654-3.7975-7.9133-5.1811-5.6803-2.0345-10.266 3.7148-11.922 8.5225-0.57037 4.1536-5.2966 2.1333-8.253 2.8806-7.8733 0.61175-13.382 11.127-9.095 17.846 1.2549 2.2454 5.3355 3.6458 6.4188 0.51607 1.1165-3.6379 5.7111-2.8818 8.6614-3.5987 1.9222 0.18174 3.9902 0.30535 5.3008-1.3927 4.8158-1.1219 11.101-0.5741 13.898 4.1585 6.407 7.6598 5.5274 19.098-0.25304 26.832-3.1079 4.0333-6.6507 8.7676-11.78 10.04-0.0427-1.2444 2.5866-2.8168 3.5073-3.956 8.2458-6.2496 13.139-18.719 7.13-28.072-1.5791-2.033-3.7491-5.7856-6.7496-4.8606-1.3978 2.8165 2.3315 5.2073 2.4811 8.0566 2.2013 8.2406-0.76447 17.744-8.169 22.385-9.7211 6.6703-21.734 10.595-33.564 8.6761-3.4984-0.0747-6.9104-1.4908-10.315-1.5966-0.25928 2.2661 2.9509 3.7308 4.3433 5.2326 8.7079 6.3781 20.117 6.4873 30.325 8.4766 30.594 4.8749 61.653 5.0049 92.526 6.5283 28.367 1.2106 56.832 0.87839 85.09-1.8796 35.35-0.31311 70.663 1.8325 105.95 3.7292 17.94 0.53504 36.431-2.5638 52.371-11.069 1.8519-1.3631 4.5926-2.8012 5.3807-4.887-4.6303-0.91663-9.6239-1.1014-13.645-4.0506-8.4112-5.278-14.462-14.394-16.062-24.151 0.6971-0.90582 1.5137 2.0008 1.9191 2.5604 4.495 10.096 12.737 20.581 24.41 22.03 3.2409 0.85616 6.7184-0.50618 8.0188-3.7128 0.91356-2.1438 2.9394-3.1727 4.4512-4.6287 0.65126-2.8225-3.3958-1.1532-4.8443-1.145-10.438 2.0292-19.849-5.5918-24.896-14.084-4.7573-7.2204-3.7187-16.702 0.11063-24.137 1.8475-5.3435 6.088-12.057 1.806-17.347-2.9645-4.4312-8.7936-6.3678-13.752-4.262-2.453 0.73591-6.0639 2.1994-7.6946-0.66798-2.7788-2.5801-7.3167-4.7532-10.588-1.6146-2.8079 1.7375-3.2919 5.4197-6.5109 6.751-3.4746 1.8145-7.9145 5.4166-5.8942 9.8523 1.4934 2.5054 4.5566 6.3586 7.7234 3.8826 2.7115-1.5018 6.4902-6.0246 9.4669-2.5187 4.6677 5.9684 4.187 14.202 2.7947 21.217-2.316 7.4266-9.4927 13.02-17.372 12.717-14.255-0.29193-29.937-7.1315-35.529-21.108-3.6106-8.987-2.9957-18.981-4.3397-28.441-1.6389-13.853-1.587-28.222-6.3124-41.494-2.937-6.3231-7.8867-12.262-14.385-15.068-2.5158-0.83655-5.1767-1.413-7.839-1.3666zm13.75 66.037c1.1355 11.916 1.0454 24.412 6.207 35.527 6.9044 14.947 21.993 26.442 38.741 27.018 2.6901 0.39942 6.6923-0.18439 8.755 1.0245-5.8967 1.3903-12.286 0.57709-18.376 0.63938-8.0214-1.2252-14.528-6.9061-20.454-12.087-14.201-12.347-17.862-32.672-15.298-50.564 0.10771-0.50999 0.18285-1.1354 0.42594-1.5581zm-200.74 10.198c7.5071-0.0103 10.751 8.0539 12.944 13.972 0.73625 5.086 0.50499 10.46-0.50135 15.497-2.2048 4.4486-4.681 9.4486-8.9027 12.2 0.37692-3.1828 3.7527-5.6927 4.9369-8.7964 4.1434-8.3955 3.4602-19.745-3.6843-26.362-2.178-3.2588-6.8558-0.92309-10.154-2.1214-1.6736-0.18453-4.0373-3.1453-1.1714-3.4861 2.1406-0.55574 4.3161-0.93067 6.5322-0.90219zm67.595 5.5077c7.4049 1.7517 12.878 7.7586 18.52 12.518 14.398 13.778 28.549 29.642 48.06 35.995 9.6505 2.7663 20.737 3.3587 29.564-2.1848 2.5649-1.0889 5.716-3.7006 8.2712-3.5834-3.676 4.5095-9.5351 6.7398-14.623 9.2658-7.3737 3.1111-15.778 1.9979-23.474 0.74537-14.534-3.6458-26.824-13.324-36.54-24.46-8.9539-9.7658-17.995-19.633-29.098-27.02-0.16017-0.25291-2.0727-1.463-0.68042-1.2759zm148.55 13.783c4.9308 4.565 8.5827 10.691 14.583 14.156 8.5722 5.7442 19.148 8.101 29.367 7.8917 5.5155-0.14671 9.4768-4.3138 13.961-6.7973 1.5202 0.72365-1.2824 2.6899-1.8254 3.461-7.8557 7.9877-20.36 7.9678-30.443 5.074-10.607-3.3656-18.688-11.973-24.761-20.966-0.39722-0.83844-1.1203-1.8738-0.88224-2.8198zm-31.729 2.7015c-2.5406 6.0136-7.8249 10.586-12.479 15.035-6.5548 6.1702-15.42 9.6405-24.458 9.2245-6.147 0.45229-12.737-0.24174-18.089-3.2288 8.6138-0.36236 17.469 3.315 25.958 0.17183 11.944-2.8739 20.088-12.621 28.446-20.849 0.17631-0.10019 0.44482-0.38701 0.62152-0.35344z" fill="#655649" style="paint-order:markers stroke fill"/></svg>
