<?xml version="1.0" encoding="UTF-8" standalone="no"?>
<!-- Created with Inkscape (http://www.inkscape.org/) -->

<svg
   version="1.1"
   id="svg10394"
   width="408"
   height="227"
   viewBox="0 0 408 227"
   xmlns="http://www.w3.org/2000/svg"
   xmlns:svg="http://www.w3.org/2000/svg">
  <defs
     id="defs10398" />
  <g
     id="g10400">
    <path
       style="fill:#655649;fill-opacity:1;stroke:none;stroke-width:1.23449;stroke-linejoin:round;paint-order:markers stroke fill"
       d="m 266.101,36.6088 c -2.23659,-0.147255 -4.19931,1.156152 -5.13315,3.08498 -6.70778,1.433369 -15.17344,-0.813471 -20.42072,4.851531 -2.84856,3.095825 -1.98237,9.794684 2.7569,10.279811 5.08252,0.171179 9.08346,-4.37962 14.0322,-4.231422 6.0428,2.383642 12.68393,5.744115 14.92076,12.329462 5.32382,10.141026 3.22902,22.155092 -1.44288,32.096944 -7.91456,18.404174 -24.70809,32.086034 -43.32446,38.768084 -8.51807,3.0561 -17.62331,2.31507 -26.45794,3.18592 -1.999,0.74709 1.27126,1.89199 1.99665,1.96239 10.57584,3.45013 22.10257,3.58276 32.64582,-0.0732 2.51569,-0.59196 5.76914,-2.08559 7.95433,-2.16889 -4.76353,4.43273 -11.87339,5.18027 -18.01759,6.50483 -13.28609,2.59424 -27.30357,0.0382 -38.8703,-7.01611 -19.86342,-11.4356 -31.38784,-33.20985 -52.03984,-43.620208 -11.87032,-6.565974 -26.29873,-12.571189 -39.900468,-7.845824 -7.547195,2.019021 -12.635143,10.704866 -9.705802,18.134262 1.158557,3.45377 6.00607,6.18594 9.224953,4.06408 2.45335,-3.35236 7.015927,-4.24016 9.371637,-7.770598 3.02093,-2.068882 6.79213,0.510251 9.80234,1.382128 9.01637,4.03557 11.24369,15.19228 10.85449,24.10444 -0.25859,10.28798 -6.79949,19.17125 -14.71859,25.237 -6.68516,5.18586 -14.596601,9.4893 -22.950776,10.87286 1.018638,-1.88922 4.377769,-2.39818 6.286901,-3.55357 13.447215,-5.04171 25.594545,-15.97406 28.424475,-30.51357 2.01838,-8.6152 -1.23798,-19.62606 -10.16745,-22.84522 -4.63053,-0.10261 -9.42192,2.64625 -12.022141,6.36196 0.715952,1.64596 3.517641,1.29604 4.456351,3.03143 5.68415,4.28826 6.87224,11.97308 5.17974,18.51777 -1.68845,9.1502 -8.64791,16.53419 -16.517906,20.90247 -2.927616,1.56497 -1.276962,-0.29035 0.229999,-1.61203 6.442297,-5.86573 13.713567,-12.66451 13.937097,-22.06136 0.19696,-5.12735 -0.91909,-11.69075 -6.519595,-13.55183 -4.409841,-2.73319 -9.796482,-2.66754 -14.399747,-4.72788 -3.644664,-2.4956 -3.864532,-7.19992 -5.866077,-10.67789 -2.938744,-1.247079 -5.065423,-3.797534 -7.913308,-5.18113 -5.680273,-2.034527 -10.266312,3.714757 -11.922378,8.52247 -0.570369,4.15358 -5.296624,2.13332 -8.253024,2.88057 -7.873265,0.61175 -13.381931,11.12714 -9.094988,17.84557 1.254901,2.24539 5.335518,3.64581 6.418767,0.51607 1.116538,-3.6379 5.711087,-2.88179 8.661408,-3.59868 1.922201,0.18174 3.990214,0.30535 5.300841,-1.39274 4.815831,-1.1219 11.10094,-0.5741 13.898464,4.15851 6.407014,7.65985 5.527433,19.09769 -0.253044,26.83244 -3.107935,4.03331 -6.650746,8.76759 -11.780243,10.03994 -0.0427,-1.24435 2.586554,-2.81682 3.507326,-3.95598 8.245758,-6.24965 13.138681,-18.71939 7.13,-28.0724 -1.579066,-2.03301 -3.749116,-5.78555 -6.749568,-4.86064 -1.397826,2.81647 2.3315,5.2073 2.48107,8.05662 2.201251,8.24061 -0.76447,17.74374 -8.169036,22.38464 -9.721075,6.67027 -21.73372,10.59471 -33.564138,8.67609 -3.498429,-0.0747 -6.910391,-1.49078 -10.314757,-1.59664 -0.259285,2.26614 2.950945,3.73081 4.343291,5.23257 8.707875,6.37812 20.116828,6.48731 30.324604,8.4766 30.593615,4.87491 61.653422,5.0049 92.526402,6.52829 28.36695,1.21056 56.83213,0.87839 85.09011,-1.87963 35.35018,-0.31311 70.66309,1.83247 105.94527,3.72922 17.94035,0.53504 36.43133,-2.56375 52.37062,-11.06942 1.85188,-1.36311 4.59265,-2.80116 5.38066,-4.88698 -4.63028,-0.91663 -9.6239,-1.10135 -13.64515,-4.05064 -8.41115,-5.27805 -14.46165,-14.39436 -16.06178,-24.1513 0.6971,-0.90582 1.51371,2.00082 1.91907,2.56042 4.49505,10.09613 12.73749,20.58062 24.40967,22.03012 3.24091,0.85616 6.71838,-0.50618 8.01884,-3.71281 0.91356,-2.14382 2.93942,-3.17267 4.45121,-4.62873 0.65126,-2.82246 -3.39584,-1.15322 -4.84431,-1.14505 -10.4379,2.02919 -19.84861,-5.59178 -24.89583,-14.08434 -4.75728,-7.22042 -3.71868,-16.70241 0.11063,-24.13651 1.84746,-5.34353 6.08798,-12.05749 1.80605,-17.347381 -2.96447,-4.431238 -8.79363,-6.36776 -13.7525,-4.261982 -2.45297,0.735908 -6.06392,2.199393 -7.69455,-0.667983 -2.77883,-2.580123 -7.31666,-4.75324 -10.58796,-1.614635 -2.8079,1.73753 -3.29186,5.419659 -6.5109,6.751048 -3.47457,1.814543 -7.91449,5.416613 -5.89422,9.852253 1.49344,2.50542 4.55665,6.3586 7.72343,3.88256 2.71154,-1.50176 6.49022,-6.02455 9.4669,-2.51868 4.6677,5.96835 4.18697,14.20165 2.79472,21.21741 -2.31603,7.42655 -9.49268,13.01985 -17.37201,12.71687 -14.2552,-0.29193 -29.93675,-7.13147 -35.52893,-21.10836 -3.61056,-8.98703 -2.9957,-18.98089 -4.33969,-28.441322 -1.63886,-13.852701 -1.58697,-28.222466 -6.31242,-41.494055 -2.93696,-6.323125 -7.88666,-12.261615 -14.38482,-15.068335 -2.51585,-0.836553 -5.17667,-1.413049 -7.83903,-1.366648 z m 13.7497,66.03744 c 1.13549,11.91601 1.04536,24.41206 6.20701,35.52741 6.90435,14.94731 21.99347,26.44237 38.74071,27.01818 2.69012,0.39942 6.69232,-0.18439 8.75497,1.02448 -5.89671,1.39029 -12.28557,0.57709 -18.3761,0.63938 -8.02139,-1.22519 -14.52751,-6.90608 -20.45404,-12.08723 -14.2011,-12.34738 -17.8615,-32.67241 -15.29849,-50.56409 0.10771,-0.50999 0.18285,-1.13541 0.42594,-1.55813 z m -200.739745,10.1978 c 7.507088,-0.0103 10.750768,8.05387 12.944172,13.97216 0.736248,5.086 0.504989,10.46023 -0.501351,15.49667 -2.204843,4.4486 -4.68097,9.44861 -8.902651,12.19959 0.376916,-3.18283 3.752744,-5.69274 4.936933,-8.79641 4.14345,-8.39547 3.460201,-19.74495 -3.684333,-26.36238 -2.177968,-3.25878 -6.855794,-0.92309 -10.153589,-2.12135 -1.673569,-0.18453 -4.037297,-3.14528 -1.171411,-3.48609 2.140609,-0.55574 4.316098,-0.93067 6.532228,-0.90219 z m 67.595395,5.5077 c 7.40492,1.7517 12.87784,7.75859 18.51978,12.51788 14.39794,13.77751 28.5489,29.64204 48.05997,35.99496 9.65052,2.76629 20.73741,3.35868 29.56417,-2.18479 2.56491,-1.08894 5.71598,-3.70059 8.27123,-3.58336 -3.67595,4.50949 -9.53509,6.73983 -14.62251,9.26582 -7.37369,3.11114 -15.77768,1.9979 -23.47446,0.74537 -14.53353,-3.64577 -26.82441,-13.32371 -36.53975,-24.45994 -8.95391,-9.76585 -17.9954,-19.63271 -29.09801,-27.02003 -0.16017,-0.25291 -2.07271,-1.46303 -0.68042,-1.27591 z m 148.54672,13.78343 c 4.93084,4.56495 8.58274,10.69138 14.58313,14.15608 8.57223,5.74417 19.14767,8.10098 29.36669,7.89173 5.51553,-0.14671 9.47677,-4.31375 13.96139,-6.79727 1.52018,0.72365 -1.28241,2.68991 -1.82536,3.46104 -7.85571,7.98771 -20.35958,7.96775 -30.44263,5.07402 -10.6068,-3.36559 -18.68804,-11.97286 -24.76098,-20.96583 -0.39722,-0.83844 -1.12031,-1.87375 -0.88224,-2.81977 z m -31.72942,2.70147 c -2.54063,6.01365 -7.82488,10.58552 -12.47941,15.03493 -6.55483,6.17015 -15.41987,9.64051 -24.45767,9.22451 -6.14704,0.45229 -12.73728,-0.24174 -18.08903,-3.22883 8.61376,-0.36236 17.46856,3.31503 25.9583,0.17183 11.94415,-2.87388 20.08824,-12.62121 28.44629,-20.84901 0.17631,-0.10019 0.44482,-0.38701 0.62152,-0.35344 z"
       id="path14684" />
  </g>
</svg>
