<svg id="duck" width="115.41mm" height="158.65mm" version="1.1" viewBox="0 0 115.41 158.65" xmlns="http://www.w3.org/2000/svg" xmlns:osb="http://www.openswatchbook.org/uri/2009/osb" xmlns:xlink="http://www.w3.org/1999/xlink">
  <defs>
    <linearGradient id="linearGradient1391" gradientTransform="matrix(.26458 0 0 .26458 16.089 8.1653)" osb:paint="solid">
      <stop stop-color="#d4aa00" offset="0"/>
    </linearGradient>
    <linearGradient id="linearGradient883" gradientTransform="matrix(.012761 0 0 .016781 98.475 106.27)" osb:paint="solid">
      <stop stop-color="#ffd42a" offset="0"/>
    </linearGradient>
    <linearGradient id="linearGradient870" gradientTransform="matrix(-.003896 5.6109e-5 7.8775e-5 .0069164 153.52 100.11)" osb:paint="solid">
      <stop stop-color="#a40" offset="0"/>
    </linearGradient>
    <linearGradient id="linearGradient864" gradientTransform="matrix(2.3311 0 0 2.0098 -89.954 -127.66)" osb:paint="solid">
      <stop stop-color="#d45500" offset="0"/>
    </linearGradient>
    <linearGradient id="linearGradient860" x1="94.444" x2="117.5" y1="75.191" y2="75.191" gradientUnits="userSpaceOnUse" xlink:href="#linearGradient870"/>
    <linearGradient id="linearGradient1429" x1="48.152" x2="90.648" y1="124.18" y2="124.18" gradientUnits="userSpaceOnUse" xlink:href="#linearGradient1391"/>
  </defs>
  <g transform="translate(-20.882 -8.1653)">
    <g id="l_leg" transform="translate(-1.5191 2.6128)">
      <path d="m62.589 132.63c-0.69647 4.123-1.3929 8.246-2.0894 12.369 3.7395 4.9669 7.4789 9.9338 11.218 14.901-3.7152-0.65582-8.0143-0.91622-11.079 1.705-1.3641 0.99477-2.311 3.0497-3.6787 0.90332-2.8723-2.3591-6.6623-3.1164-10.295-2.9563-3.0359 0.25639 0.32014-2.2648 0.95028-3.4678 2.9648-3.8483 6.0822-7.6292 8.9516-11.52l2.1616-12.891c1.2868 0.31869 2.5736 0.63737 3.8604 0.95606z" fill="url(#linearGradient864)" stroke="url(#linearGradient864)" stroke-linejoin="round" stroke-width=".38988"/>
      <g fill="none" stroke="url(#linearGradient870)" stroke-linecap="round">
        <path d="m50.284 156.84 4.5376-5.6393" stroke-width=".35642"/>
        <path d="m58.371 159.79-0.41513-8.5119" stroke-width=".4465"/>
        <path d="m65.886 157.39-3.5776-6.0102" stroke-width=".32672"/>
      </g>
    </g>
    <g id="r_leg" transform="matrix(-1 0 0 1 159.94 3.1697)">
      <path d="m62.589 132.63c-0.69647 4.123-1.3929 8.246-2.0894 12.369 3.7395 4.9669 7.4789 9.9338 11.218 14.901-3.7152-0.65582-8.0143-0.91622-11.079 1.705-1.3641 0.99477-2.311 3.0497-3.6787 0.90332-2.8723-2.3591-6.6623-3.1164-10.295-2.9563-3.0359 0.25639 0.32014-2.2648 0.95028-3.4678 2.9648-3.8483 6.0822-7.6292 8.9516-11.52l2.1616-12.891c1.2868 0.31869 2.5736 0.63737 3.8604 0.95606z" fill="url(#linearGradient864)" stroke="url(#linearGradient864)" stroke-linejoin="round" stroke-width=".38988"/>
      <g fill="none" stroke="url(#linearGradient870)" stroke-linecap="round">
        <path d="m50.284 156.84 4.5376-5.6393" stroke-width=".35642"/>
        <path d="m58.371 159.79-0.41513-8.5119" stroke-width=".4465"/>
        <path d="m65.886 157.39-3.5776-6.0102" stroke-width=".32672"/>
      </g>
    </g>
    <ellipse id="body" cx="78.568" cy="92.998" rx="54.468" ry="41.457" fill="url(#linearGradient883)" fill-rule="evenodd" stroke-width=".62267"/>
    <g id="head" transform="translate(-29.361 -32.264)">
      <g id="skull">
        <ellipse transform="rotate(-18)" cx="79.055" cy="105.96" rx="32.436" ry="27.955" fill="#ffd42a" fill-rule="evenodd" stroke-width=".60581"/>
        <path transform="rotate(-18)" d="m67.237 131.99a32.436 27.955 0 0 1-16.712-12.734" fill="none" stroke="url(#linearGradient1429)" stroke-linecap="round" stroke-width="1.5"/>
      </g>
      <g id="face" transform="translate(5.0722 10.282)">
        <g id="mouth">
          <path d="m103.88 67.636a4.7308 5.9717 72 0 0-4.2923 5.9355 4.1796 13.692 72 0 0-6.2955 6.0197 4.1796 13.692 72 0 0 14.313-0.25593 4.1796 13.692 72 0 0 11.73-8.2061 4.1796 13.692 72 0 0-8.4197-1.2052 4.7308 5.9717 72 0 0-7.005-2.2979 4.7308 5.9717 72 0 0-0.031 0.01006z" fill="#f60" fill-rule="evenodd" stroke-width=".645"/>
          <path d="m93.294 79.591s8.0731 0.76703 13.983-1.202c5.9102-1.969 12.06-7.2601 12.06-7.2601" fill="none" opacity=".999" stroke="url(#linearGradient860)" stroke-width=".265"/>
          <ellipse transform="scale(-1,1)" cx="-108.46" cy="71.595" rx=".76059" ry=".98642" fill="url(#linearGradient870)" fill-rule="evenodd" opacity=".994" style="paint-order:normal"/>
          <ellipse transform="scale(-1,1)" cx="-102.1" cy="73.524" rx=".76059" ry=".98642" fill="url(#linearGradient870)" fill-rule="evenodd" opacity=".994" style="paint-order:normal"/>
        </g>
        <g id="l_eye" fill-rule="evenodd">
          <ellipse transform="rotate(-18)" cx="60.593" cy="93.913" rx="4.2359" ry="7.144" fill="#2b2200" stroke-width=".645"/>
          <circle id="l_pupil" cx="87.754" cy="69.284" r="2.9227" fill="#f2f2f2" opacity=".994" style="paint-order:normal"/>
        </g>
        <g id="r_eye" fill-rule="evenodd">
          <ellipse transform="rotate(-18)" cx="95.008" cy="94.226" rx="4.2359" ry="7.144" fill="#2b2200" stroke-width=".645"/>
          <circle id="r_pupil" cx="120.58" cy="58.946" r="2.9227" fill="#f2f2f2" opacity=".994" style="paint-order:normal"/>
        </g>
      </g>
    </g>
    <path id="hair" transform="rotate(84.868 26.09 113.59)" d="m-67.072 66.473c0.48816 4.6188-5.074 3.4863-6.6267 0.70039-2.5296-4.5385 1.0782-9.797 5.5123-11.244 5.0125-1.6357 10.468 0.8052 13.246 5.1337" fill="none" stroke="url(#linearGradient1391)" stroke-linecap="round" stroke-width="1.5"/>
    <g id="r_wing" transform="matrix(-1.0339 .34219 .33592 1.0532 67.543 20.872)" fill="url(#linearGradient883)" fill-rule="evenodd">
      <ellipse cx="-28.041" cy="72.033" rx="12.867" ry="24.055" opacity=".994" style="paint-order:stroke fill markers"/>
      <path d="m-25.486 48.458a12.867 24.055 0 0 1 8.971 12.884 12.867 24.055 0 0 1 0.06127 21.149" opacity=".994" stroke="url(#linearGradient1391)" stroke-linecap="round" stroke-linejoin="round" stroke-width="1.5" style="paint-order:normal"/>
    </g>
    <g transform="matrix(1.0339 .34219 -.33592 1.0532 89.635 23.579)" fill="url(#linearGradient883)" fill-rule="evenodd">
      <ellipse cx="-28.041" cy="72.033" rx="12.867" ry="24.055" opacity=".994" style="paint-order:stroke fill markers"/>
      <path d="m-25.486 48.458a12.867 24.055 0 0 1 8.971 12.884 12.867 24.055 0 0 1 0.06127 21.149" opacity=".994" stroke="url(#linearGradient1391)" stroke-linecap="round" stroke-linejoin="round" stroke-width="1.5" style="paint-order:normal"/>
    </g>
    <ellipse cx="58.753" cy="124.39" rx="11.178" ry="12.109" fill="url(#linearGradient883)" fill-rule="evenodd" opacity=".994" stroke-linecap="round" stroke-linejoin="round" stroke-width="1.5"/>
    <ellipse cx="97.677" cy="124.66" rx="11.178" ry="12.109" fill="url(#linearGradient883)" fill-rule="evenodd" opacity=".994" stroke-linecap="round" stroke-linejoin="round" stroke-width="1.5"/>
  </g>
</svg>
